<mxfile host="app.diagrams.net" agent="Mozilla/5.0 (Windows NT 10.0; Win64; x64) AppleWebKit/537.36 (KHTML, like Gecko) Chrome/132.0.0.0 Safari/537.36" version="26.0.7" pages="3">
  <diagram name="Tim" id="ZnThXyOVVyfNG0DMTEGJ">
    <mxGraphModel dx="910" dy="459" grid="0" gridSize="10" guides="1" tooltips="1" connect="1" arrows="1" fold="1" page="0" pageScale="1" pageWidth="850" pageHeight="1100" math="0" shadow="0">
      <root>
        <mxCell id="0" />
        <mxCell id="1" parent="0" />
        <mxCell id="3YEEYySxGut_SKLIXyHm-1" value="" style="ellipse;whiteSpace=wrap;html=1;aspect=fixed;fillColor=#006666;" parent="1" vertex="1">
          <mxGeometry x="130" y="50" width="390" height="390" as="geometry" />
        </mxCell>
        <mxCell id="3YEEYySxGut_SKLIXyHm-14" value="" style="ellipse;whiteSpace=wrap;html=1;aspect=fixed;fillColor=default;rotation=125;" parent="1" vertex="1">
          <mxGeometry x="343" y="180.25" width="129.5" height="129.5" as="geometry" />
        </mxCell>
        <mxCell id="3YEEYySxGut_SKLIXyHm-13" value="" style="ellipse;whiteSpace=wrap;html=1;aspect=fixed;fillColor=default;rotation=125;" parent="1" vertex="1">
          <mxGeometry x="187" y="149.75" width="190.5" height="190.5" as="geometry" />
        </mxCell>
        <mxCell id="3YEEYySxGut_SKLIXyHm-6" value="&lt;font style=&quot;color: rgb(255, 255, 255);&quot;&gt;Volunteer&lt;/font&gt;" style="text;html=1;align=center;verticalAlign=middle;whiteSpace=wrap;rounded=0;fontStyle=1" parent="1" vertex="1">
          <mxGeometry x="295" y="63" width="60" height="30" as="geometry" />
        </mxCell>
        <mxCell id="3YEEYySxGut_SKLIXyHm-3" value="" style="ellipse;whiteSpace=wrap;html=1;aspect=fixed;fillColor=none;rotation=125;" parent="1" vertex="1">
          <mxGeometry x="187" y="149.75" width="190.5" height="190.5" as="geometry" />
        </mxCell>
        <mxCell id="3YEEYySxGut_SKLIXyHm-7" value="Timses" style="text;html=1;align=center;verticalAlign=middle;whiteSpace=wrap;rounded=0;fontStyle=1" parent="1" vertex="1">
          <mxGeometry x="252.25" y="157" width="60" height="30" as="geometry" />
        </mxCell>
        <mxCell id="3YEEYySxGut_SKLIXyHm-4" value="" style="ellipse;whiteSpace=wrap;html=1;aspect=fixed;fillColor=none;rotation=125;" parent="1" vertex="1">
          <mxGeometry x="343" y="180.25" width="129.5" height="129.5" as="geometry" />
        </mxCell>
        <mxCell id="3YEEYySxGut_SKLIXyHm-9" value="Promotor" style="text;html=1;align=center;verticalAlign=middle;whiteSpace=wrap;rounded=0;fontStyle=1" parent="1" vertex="1">
          <mxGeometry x="377.5" y="190" width="60" height="30" as="geometry" />
        </mxCell>
      </root>
    </mxGraphModel>
  </diagram>
  <diagram name="Threat" id="GSfmyPaqJOVqk_EeNC47">
    <mxGraphModel dx="1071" dy="540" grid="0" gridSize="10" guides="1" tooltips="1" connect="1" arrows="1" fold="1" page="0" pageScale="1" pageWidth="850" pageHeight="1100" math="0" shadow="0">
      <root>
        <mxCell id="FkJe0Tmb6kCfjZrj5FPF-0" />
        <mxCell id="FkJe0Tmb6kCfjZrj5FPF-1" parent="FkJe0Tmb6kCfjZrj5FPF-0" />
        <mxCell id="FkJe0Tmb6kCfjZrj5FPF-2" value="" style="ellipse;whiteSpace=wrap;html=1;aspect=fixed;fillColor=#006666;" vertex="1" parent="FkJe0Tmb6kCfjZrj5FPF-1">
          <mxGeometry x="130" y="50" width="390" height="390" as="geometry" />
        </mxCell>
        <mxCell id="FkJe0Tmb6kCfjZrj5FPF-3" value="" style="ellipse;whiteSpace=wrap;html=1;aspect=fixed;fillColor=default;rotation=125;" vertex="1" parent="FkJe0Tmb6kCfjZrj5FPF-1">
          <mxGeometry x="343" y="180.25" width="129.5" height="129.5" as="geometry" />
        </mxCell>
        <mxCell id="FkJe0Tmb6kCfjZrj5FPF-4" value="" style="ellipse;whiteSpace=wrap;html=1;aspect=fixed;fillColor=default;rotation=125;" vertex="1" parent="FkJe0Tmb6kCfjZrj5FPF-1">
          <mxGeometry x="187" y="149.75" width="190.5" height="190.5" as="geometry" />
        </mxCell>
        <mxCell id="FkJe0Tmb6kCfjZrj5FPF-5" value="&lt;font style=&quot;color: rgb(255, 255, 255);&quot;&gt;Volunteer&lt;/font&gt;" style="text;html=1;align=center;verticalAlign=middle;whiteSpace=wrap;rounded=0;fontStyle=1" vertex="1" parent="FkJe0Tmb6kCfjZrj5FPF-1">
          <mxGeometry x="295" y="63" width="60" height="30" as="geometry" />
        </mxCell>
        <mxCell id="FkJe0Tmb6kCfjZrj5FPF-6" value="" style="ellipse;whiteSpace=wrap;html=1;aspect=fixed;fillColor=none;rotation=125;" vertex="1" parent="FkJe0Tmb6kCfjZrj5FPF-1">
          <mxGeometry x="187" y="149.75" width="190.5" height="190.5" as="geometry" />
        </mxCell>
        <mxCell id="FkJe0Tmb6kCfjZrj5FPF-7" value="Timses" style="text;html=1;align=center;verticalAlign=middle;whiteSpace=wrap;rounded=0;fontStyle=1" vertex="1" parent="FkJe0Tmb6kCfjZrj5FPF-1">
          <mxGeometry x="252.25" y="157" width="60" height="30" as="geometry" />
        </mxCell>
        <mxCell id="FkJe0Tmb6kCfjZrj5FPF-8" value="" style="ellipse;whiteSpace=wrap;html=1;aspect=fixed;fillColor=none;rotation=125;" vertex="1" parent="FkJe0Tmb6kCfjZrj5FPF-1">
          <mxGeometry x="343" y="180.25" width="129.5" height="129.5" as="geometry" />
        </mxCell>
        <mxCell id="FkJe0Tmb6kCfjZrj5FPF-9" value="Promotor" style="text;html=1;align=center;verticalAlign=middle;whiteSpace=wrap;rounded=0;fontStyle=1" vertex="1" parent="FkJe0Tmb6kCfjZrj5FPF-1">
          <mxGeometry x="377.5" y="190" width="60" height="30" as="geometry" />
        </mxCell>
        <mxCell id="HmTSox2BKQgYG8xfRHuU-9" value="" style="group" vertex="1" connectable="0" parent="FkJe0Tmb6kCfjZrj5FPF-1">
          <mxGeometry x="551" y="50" width="390" height="390" as="geometry" />
        </mxCell>
        <mxCell id="HmTSox2BKQgYG8xfRHuU-0" value="" style="ellipse;whiteSpace=wrap;html=1;aspect=fixed;fillColor=#FFA2A2;" vertex="1" parent="HmTSox2BKQgYG8xfRHuU-9">
          <mxGeometry x="-29" width="390" height="390" as="geometry" />
        </mxCell>
        <mxCell id="HmTSox2BKQgYG8xfRHuU-10" value="" style="ellipse;whiteSpace=wrap;html=1;fillColor=#FF0000;opacity=30;" vertex="1" parent="HmTSox2BKQgYG8xfRHuU-9">
          <mxGeometry x="-65" y="172.5" width="208" height="45" as="geometry" />
        </mxCell>
        <mxCell id="HmTSox2BKQgYG8xfRHuU-3" value="&lt;font style=&quot;color: rgb(0, 0, 0);&quot;&gt;Volunteer&lt;/font&gt;&lt;div&gt;&lt;font style=&quot;color: rgb(0, 0, 0);&quot;&gt;Lawan&lt;/font&gt;&lt;/div&gt;" style="text;html=1;align=center;verticalAlign=middle;whiteSpace=wrap;rounded=0;fontStyle=1" vertex="1" parent="HmTSox2BKQgYG8xfRHuU-9">
          <mxGeometry x="136" y="12" width="60" height="30" as="geometry" />
        </mxCell>
        <mxCell id="HmTSox2BKQgYG8xfRHuU-8" value="" style="ellipse;whiteSpace=wrap;html=1;fillColor=none;" vertex="1" parent="HmTSox2BKQgYG8xfRHuU-9">
          <mxGeometry x="-65" y="172.5" width="208" height="45" as="geometry" />
        </mxCell>
        <mxCell id="HmTSox2BKQgYG8xfRHuU-16" value="Timses/Promotor" style="text;html=1;align=center;verticalAlign=middle;whiteSpace=wrap;rounded=0;fontStyle=1" vertex="1" parent="HmTSox2BKQgYG8xfRHuU-9">
          <mxGeometry x="11" y="180" width="60" height="30" as="geometry" />
        </mxCell>
      </root>
    </mxGraphModel>
  </diagram>
  <diagram id="il19HbbahIdtFRQOLV1n" name="Page-2">
    <mxGraphModel grid="1" page="1" gridSize="10" guides="1" tooltips="1" connect="1" arrows="1" fold="1" pageScale="1" pageWidth="850" pageHeight="1100" math="0" shadow="0">
      <root>
        <mxCell id="0" />
        <mxCell id="1" parent="0" />
      </root>
    </mxGraphModel>
  </diagram>
</mxfile>
